<svg width="120" height="120" viewBox="0 0 120 120" fill="none" xmlns="http://www.w3.org/2000/svg">
<rect width="120" height="120" fill="white"/>
<path d="M25.0265 101.364C27.8105 101.364 29.2025 100.332 29.2025 98.268C29.2025 97.428 28.9865 96.768 28.5545 96.288C28.1465 95.808 27.3785 95.388 26.2505 95.028L23.2985 94.056C19.7705 92.904 18.0065 90.588 18.0065 87.108C18.0065 85.092 18.6305 83.436 19.8785 82.14C21.1505 80.82 23.1305 80.16 25.8185 80.16C26.9465 80.16 28.0625 80.292 29.1665 80.556C30.2705 80.796 31.4465 81.192 32.6945 81.744L31.3625 85.452C30.2105 84.996 29.2265 84.672 28.4105 84.48C27.6185 84.264 26.8025 84.156 25.9625 84.156C24.8585 84.156 23.9825 84.36 23.3345 84.768C22.7105 85.152 22.3985 85.86 22.3985 86.892C22.3985 87.66 22.6145 88.296 23.0465 88.8C23.5025 89.28 24.2465 89.688 25.2785 90.024L28.2305 90.996C30.0065 91.596 31.3385 92.472 32.2265 93.624C33.1385 94.752 33.5945 96.252 33.5945 98.124C33.5945 100.284 32.9105 102.036 31.5425 103.38C30.1745 104.7 28.0265 105.36 25.0985 105.36C23.9465 105.36 22.7465 105.228 21.4985 104.964C20.2745 104.676 18.9305 104.196 17.4665 103.524L18.7985 99.816C20.1425 100.392 21.2825 100.8 22.2185 101.04C23.1785 101.256 24.1145 101.364 25.0265 101.364ZM51.7953 105V94.668H42.6513V105H38.3313V80.52H42.6513V90.528H51.7953V80.52H56.1153V105H51.7953ZM67.1903 105H62.8703V80.52H67.1903V105ZM86.4725 95.604H78.2645V105H73.9445V80.52H87.5525V84.66H78.2645V91.464H86.4725V95.604ZM89.2043 84.66V80.52H107.204V84.66H100.364V105H96.0443V84.66H89.2043Z" fill="black"/>
<path d="M108 66.5C108 44.6848 86.7335 27 60.5 27" stroke="black" stroke-width="5"/>
<line x1="61" y1="27" x2="61" y2="17" stroke="black" stroke-width="4"/>
<line x1="85.2437" y1="31.825" x2="90.0272" y2="23.0433" stroke="black" stroke-width="4"/>
<path d="M104 48.7032L112.825 44" stroke="black" stroke-width="4"/>
<path d="M13 66C13 44.4609 34.4903 27 61 27" stroke="black" stroke-width="5"/>
<line y1="-2" x2="10" y2="-2" transform="matrix(-0.482345 -0.875981 -0.875981 0.482345 33.8962 32.8695)" stroke="black" stroke-width="4"/>
<path d="M16.0848 49.1793L7 45" stroke="black" stroke-width="4"/>
<line x1="66.8974" y1="53.6325" x2="62.8974" y2="65.6325" stroke="black" stroke-width="4"/>
<circle cx="62.5" cy="67.5" r="5.5" fill="black"/>
</svg>
