<svg width="120" height="120" viewBox="0 0 120 120" fill="none" xmlns="http://www.w3.org/2000/svg">
<rect width="120" height="120" fill="white"/>
<path d="M24.089 69.364C26.873 69.364 28.265 68.332 28.265 66.268C28.265 65.428 28.049 64.768 27.617 64.288C27.209 63.808 26.441 63.388 25.313 63.028L22.361 62.056C18.833 60.904 17.069 58.588 17.069 55.108C17.069 53.092 17.693 51.436 18.941 50.14C20.213 48.82 22.193 48.16 24.881 48.16C26.009 48.16 27.125 48.292 28.229 48.556C29.333 48.796 30.509 49.192 31.757 49.744L30.425 53.452C29.273 52.996 28.289 52.672 27.473 52.48C26.681 52.264 25.865 52.156 25.025 52.156C23.921 52.156 23.045 52.36 22.397 52.768C21.773 53.152 21.461 53.86 21.461 54.892C21.461 55.66 21.677 56.296 22.109 56.8C22.565 57.28 23.309 57.688 24.341 58.024L27.293 58.996C29.069 59.596 30.401 60.472 31.289 61.624C32.201 62.752 32.657 64.252 32.657 66.124C32.657 68.284 31.973 70.036 30.605 71.38C29.237 72.7 27.089 73.36 24.161 73.36C23.009 73.36 21.809 73.228 20.561 72.964C19.337 72.676 17.993 72.196 16.529 71.524L17.861 67.816C19.205 68.392 20.345 68.8 21.281 69.04C22.241 69.256 23.177 69.364 24.089 69.364ZM51.5058 68.86V73H37.3938V48.52H41.7138V68.86H51.5058ZM59.9599 73H55.6399V48.52H59.9599V73ZM66.7141 73V48.52H74.9941C77.9221 48.52 80.1541 49.336 81.6901 50.968C83.2261 52.6 83.9941 55 83.9941 58.168V63.316C83.9941 66.508 83.2261 68.92 81.6901 70.552C80.1541 72.184 77.9221 73 74.9941 73H66.7141ZM74.8141 52.66H71.0341V68.86H74.8141C76.5181 68.86 77.7301 68.44 78.4501 67.6C79.1941 66.76 79.5661 65.332 79.5661 63.316V58.168C79.5661 56.176 79.1941 54.76 78.4501 53.92C77.7301 53.08 76.5181 52.66 74.8141 52.66ZM103.89 68.86V73H89.7063V48.52H103.53V52.66H94.0263V58.528H102.45V62.668H94.0263V68.86H103.89Z" fill="black"/>
<path d="M11 32.5C20 28 29.2931 21.5193 43.7931 21.5192C58.8679 21.5192 65 30 78.5 30C92 30 101 24 110.5 18.5" stroke="black" stroke-width="8"/>
<path d="M10 101C19 96.5 28.2931 90.0193 42.7931 90.0192C57.8679 90.0192 64 98.5 77.5 98.5C91 98.5 100 92.5 109.5 87" stroke="black" stroke-width="8"/>
</svg>
