<svg width="120" height="120" viewBox="0 0 120 120" fill="none" xmlns="http://www.w3.org/2000/svg">
<rect width="120" height="120" fill="white"/>
<path d="M31.7354 69.364C34.5194 69.364 35.9114 68.332 35.9114 66.268C35.9114 65.428 35.6954 64.768 35.2634 64.288C34.8554 63.808 34.0874 63.388 32.9594 63.028L30.0074 62.056C26.4794 60.904 24.7154 58.588 24.7154 55.108C24.7154 53.092 25.3394 51.436 26.5874 50.14C27.8594 48.82 29.8394 48.16 32.5274 48.16C33.6554 48.16 34.7714 48.292 35.8754 48.556C36.9794 48.796 38.1554 49.192 39.4034 49.744L38.0714 53.452C36.9194 52.996 35.9354 52.672 35.1194 52.48C34.3274 52.264 33.5114 52.156 32.6714 52.156C31.5674 52.156 30.6914 52.36 30.0434 52.768C29.4194 53.152 29.1074 53.86 29.1074 54.892C29.1074 55.66 29.3234 56.296 29.7554 56.8C30.2114 57.28 30.9554 57.688 31.9874 58.024L34.9394 58.996C36.7154 59.596 38.0474 60.472 38.9354 61.624C39.8474 62.752 40.3034 64.252 40.3034 66.124C40.3034 68.284 39.6194 70.036 38.2514 71.38C36.8834 72.7 34.7354 73.36 31.8074 73.36C30.6554 73.36 29.4554 73.228 28.2074 72.964C26.9834 72.676 25.6394 72.196 24.1754 71.524L25.5074 67.816C26.8514 68.392 27.9914 68.8 28.9274 69.04C29.8874 69.256 30.8234 69.364 31.7354 69.364ZM45.0403 73V48.52H53.1043C55.6723 48.52 57.5923 49.168 58.8643 50.464C60.1603 51.76 60.8083 53.488 60.8083 55.648V57.556C60.8083 59.716 60.1603 61.456 58.8643 62.776C57.5923 64.072 55.6723 64.72 53.1043 64.72H49.3603V73H45.0403ZM53.1043 52.66H49.3603V60.58H53.1043C54.1603 60.58 54.9643 60.316 55.5163 59.788C56.0923 59.26 56.3803 58.516 56.3803 57.556V55.648C56.3803 54.712 56.0923 53.98 55.5163 53.452C54.9643 52.924 54.1603 52.66 53.1043 52.66ZM70.0321 73H65.7121V48.52H70.0321V73ZM76.7863 73V48.52H80.7463C82.6423 50.992 84.4423 53.608 86.1463 56.368C87.8503 59.104 89.3983 61.924 90.7903 64.828L90.4663 57.52V48.52H94.6063V73H90.6463C89.1103 69.976 87.5143 66.94 85.8583 63.892C84.2263 60.82 82.4863 57.928 80.6383 55.216L80.9263 63.64V73H76.7863Z" fill="black"/>
<path d="M60.5 16L60.5 14L60.5 16ZM108.5 30.5L95.5668 11.3672L85.4639 32.1341L108.5 30.5ZM13.5 30.5C14.6006 32.1699 14.6003 32.1701 14.6 32.1703C14.6 32.1703 14.5999 32.1704 14.5999 32.1704C14.6 32.1703 14.6005 32.17 14.6012 32.1695C14.6027 32.1685 14.6056 32.1667 14.6098 32.1639C14.6181 32.1585 14.6318 32.1496 14.6506 32.1374C14.6882 32.1131 14.7467 32.0755 14.8253 32.0255C14.9827 31.9256 15.2208 31.7763 15.5352 31.5847C16.164 31.2013 17.0971 30.649 18.2975 29.9838C20.6995 28.6527 24.1654 26.8735 28.3999 25.0938C36.8901 21.5255 48.3643 18 60.5 18L60.5 14C47.6357 14 35.6099 17.7246 26.8501 21.4063C22.4596 23.2515 18.863 25.0973 16.3587 26.485C15.106 27.1792 14.1251 27.7596 13.4531 28.1693C13.1171 28.3741 12.8582 28.5363 12.681 28.6488C12.5924 28.7051 12.5243 28.7489 12.4772 28.7794C12.4536 28.7946 12.4353 28.8066 12.4223 28.8151C12.4158 28.8193 12.4106 28.8227 12.4068 28.8252C12.4049 28.8264 12.4033 28.8275 12.4021 28.8283C12.4015 28.8287 12.4008 28.8291 12.4005 28.8294C12.3999 28.8297 12.3994 28.8301 13.5 30.5ZM60.5 18C71.9394 18 83.0162 21.1323 91.5837 24.4875L93.0423 20.7629C84.2195 17.3077 72.6226 14 60.5 14L60.5 18Z" fill="black"/>
<path d="M13.5 30.5C13.5 30.5 35.5 16.0001 60.5 16C85.5 16 97.5 25 97.5 25" stroke="black" stroke-width="7"/>
<path d="M61 104.5L61 106.5L61 104.5ZM13 90L25.9332 109.133L36.0361 88.3659L13 90ZM108 90C106.899 88.3301 106.9 88.3299 106.9 88.3297C106.9 88.3297 106.9 88.3296 106.9 88.3296C106.9 88.3297 106.9 88.33 106.899 88.3305C106.897 88.3315 106.894 88.3334 106.89 88.3361C106.882 88.3415 106.868 88.3504 106.849 88.3626C106.812 88.387 106.753 88.4246 106.675 88.4745C106.517 88.5744 106.279 88.7237 105.965 88.9154C105.336 89.2987 104.403 89.8511 103.202 90.5163C100.8 91.8473 97.3346 93.6265 93.1001 95.4062C84.6099 98.9745 73.1357 102.5 61 102.5L61 106.5C73.8643 106.5 85.8901 102.775 94.6499 99.0938C99.0404 97.2485 102.637 95.4027 105.141 94.015C106.394 93.3208 107.375 92.7404 108.047 92.3308C108.383 92.1259 108.642 91.9637 108.819 91.8512C108.908 91.7949 108.976 91.7511 109.023 91.7206C109.046 91.7054 109.065 91.6934 109.078 91.685C109.084 91.6807 109.089 91.6773 109.093 91.6748C109.095 91.6736 109.097 91.6725 109.098 91.6717C109.099 91.6713 109.099 91.6709 109.1 91.6707C109.1 91.6703 109.101 91.6699 108 90ZM61 102.5C49.5606 102.5 38.4838 99.3677 29.9163 96.0126L28.4577 99.7371C37.2805 103.192 48.8774 106.5 61 106.5L61 102.5Z" fill="black"/>
<path d="M108 90C108 90 86 104.5 61 104.5C36 104.5 24 95.5 24 95.5" stroke="black" stroke-width="7"/>
</svg>
